<svg width="64" height="64" viewBox="0 0 256 256" fill="none" xmlns="http://www.w3.org/2000/svg">
<circle cx="128" cy="128" r="128" fill="white"></circle>
<g filter="url(#filter0_d_6_7)">
<path d="M192.703 116.996C194.043 116.996 199.797 117.132 203.5 122.903V116.996C203.5 113.358 206.359 110.398 209.875 110.398C211.048 110.398 212 111.383 212 112.598C212 113.812 211.048 114.797 209.875 114.797C208.704 114.797 207.75 115.784 207.75 116.996V134.59C207.75 137.016 205.844 138.988 203.5 138.988H191.812C191.225 138.988 190.75 138.496 190.75 137.889V136.789C190.75 135.575 191.702 134.59 192.875 134.59H195L186.5 127.992V137.889C186.5 139.174 186.662 138.931 185.437 138.988H183.312C182.25 138.988 182.25 139.192 182.25 137.889V123.722C182.933 123.905 183.637 124.034 184.375 124.034C188.48 124.034 191.913 121.006 192.703 116.996ZM182.25 110.398H186.5L190.75 106V115.237C190.75 118.881 187.896 121.834 184.375 121.834C180.854 121.834 178 118.881 178 115.237V106L182.25 110.398ZM187.031 115.897C187.618 115.897 188.094 115.404 188.094 114.797C188.094 114.19 187.618 113.697 187.031 113.697C186.444 113.697 185.969 114.189 185.969 114.797C185.969 115.404 186.444 115.897 187.031 115.897ZM181.719 115.897C182.306 115.897 182.781 115.404 182.781 114.797C182.781 114.189 182.306 113.697 181.719 113.697C181.132 113.697 180.656 114.189 180.656 114.797C180.656 115.404 181.132 115.897 181.719 115.897Z" fill="black"></path>
<path d="M187.031 115.897C187.618 115.897 188.094 115.404 188.094 114.797C188.094 114.19 187.618 113.697 187.031 113.697C186.444 113.697 185.969 114.189 185.969 114.797C185.969 115.404 186.444 115.897 187.031 115.897Z" fill="#23F08E"></path>
<path d="M181.719 115.897C182.306 115.897 182.781 115.404 182.781 114.797C182.781 114.189 182.306 113.697 181.719 113.697C181.132 113.697 180.656 114.189 180.656 114.797C180.656 115.404 181.132 115.897 181.719 115.897Z" fill="#31B5DE"></path>
</g>
<g filter="url(#filter1_d_6_7)">
<path d="M61.9688 107.531C61.9688 105.781 62.5625 104.312 63.75 103.125C65 101.875 66.5 101.25 68.25 101.25H86.25V71.0625H68.25C66.5 71.0625 65.0312 70.4375 63.8438 69.1875C62.5938 68 61.9688 66.5312 61.9688 64.7812C61.9688 63.0312 62.5625 61.5625 63.75 60.375C65 59.125 66.5 58.5 68.25 58.5H116.812C118.562 58.5 120.062 59.0938 121.312 60.2812C122.5 61.5312 123.094 63.0312 123.094 64.7812C123.094 66.5312 122.469 68.0312 121.219 69.2812C120.031 70.4688 118.562 71.0625 116.812 71.0625H98.9062V101.25H116.812C118.562 101.25 120.062 101.844 121.312 103.031C122.5 104.281 123.094 105.781 123.094 107.531C123.094 109.281 122.469 110.781 121.219 112.031C120.031 113.219 118.562 113.812 116.812 113.812H68.25C66.5 113.812 65.0312 113.188 63.8438 111.938C62.5938 110.75 61.9688 109.281 61.9688 107.531ZM139.219 114.938C137.531 114.875 136.094 114.281 134.906 113.156C133.719 111.969 133.094 110.531 133.031 108.844V85.5C133.094 81.0625 133.719 76.875 134.906 72.9375C136.156 69 138.188 65.6875 141 63C143.875 60.25 147.5 58.75 151.875 58.5H188.062C189.75 58.5625 191.156 59.1875 192.281 60.375C193.469 61.5 194.094 62.9062 194.156 64.5938C194.156 66.3438 193.562 67.8438 192.375 69.0938C191.25 70.3438 189.812 71 188.062 71.0625H155.062C152.688 71.1875 150.719 72.0938 149.156 73.7812C147.594 75.4688 146.594 77.4062 146.156 79.5938C145.781 81.7188 145.625 84.0625 145.688 86.625V108.844C145.625 110.594 144.969 112.062 143.719 113.25C142.469 114.375 140.969 114.938 139.219 114.938ZM150.094 90.2812C150.094 88.5312 150.719 87.0625 151.969 85.875C153.156 84.625 154.625 84 156.375 84H188.062C189.812 84 191.281 84.625 192.469 85.875C193.719 87.0625 194.344 88.5312 194.344 90.2812C194.344 92.0312 193.75 93.5312 192.562 94.7812C191.312 95.9688 189.812 96.5625 188.062 96.5625H156.375C154.625 96.5625 153.125 95.9688 151.875 94.7812C150.688 93.5312 150.094 92.0312 150.094 90.2812Z" fill="black"></path>
</g>
<g filter="url(#filter2_d_6_7)">
<path d="M48.3281 151.062C45.9531 151.188 43.9531 152.094 42.3281 153.781C40.7656 155.469 39.6406 157.406 38.9531 159.594C38.2656 161.719 37.9219 163.906 37.9219 166.156C37.9219 168.406 38.2344 170.625 38.8594 172.812C39.5469 175 40.7031 176.938 42.3281 178.625C43.9531 180.25 45.9531 181.125 48.3281 181.25H79.2656C83.2031 181.625 85.3594 183.781 85.7344 187.719C85.6719 189.469 85.0156 190.938 83.7656 192.125C82.5156 193.25 81.0156 193.812 79.2656 193.812H49.3594H45.0469C40.6719 193.562 37.0781 191.906 34.2656 188.844C31.4531 185.719 29.4219 182.188 28.1719 178.25C26.9844 174.312 26.3906 170.281 26.3906 166.156C26.3906 163.094 26.7344 160.062 27.4219 157.062C28.1094 154.062 29.1719 151.219 30.6094 148.531C32.1094 145.781 34.0781 143.438 36.5156 141.5C39.0156 139.562 41.8594 138.562 45.0469 138.5H46.8281H79.2656C83.2031 138.875 85.3594 141.031 85.7344 144.969C85.7344 146.719 85.0781 148.188 83.7656 149.375C82.5156 150.5 81.0156 151.062 79.2656 151.062H48.3281ZM115.453 179.281C115.453 177.531 116.047 176.062 117.234 174.875C118.484 173.625 119.984 173 121.734 173H136.078L133.641 166.062C132.641 163.5 131.641 161.094 130.641 158.844C129.703 156.531 128.609 154.438 127.359 152.562C126.234 150.688 124.953 149.688 123.516 149.562C122.016 149.688 120.672 150.688 119.484 152.562C118.297 154.438 117.203 156.531 116.203 158.844C115.266 161.094 114.297 163.5 113.297 166.062L104.391 190.438C103.766 191.75 102.953 192.844 101.953 193.719C101.016 194.531 99.5781 194.938 97.6406 194.938C95.8281 194.938 94.3281 194.312 93.1406 193.062C92.0156 191.812 91.5156 190.312 91.6406 188.562C91.7031 187.75 91.8906 187 92.2031 186.312L102.516 159.688C105.391 152.688 108.266 147.031 111.141 142.719C113.953 138.469 118.078 136.312 123.516 136.25C128.891 136.312 132.984 138.469 135.797 142.719C138.672 146.906 141.547 152.562 144.422 159.688L154.734 186.312C155.047 187 155.234 187.75 155.297 188.562C155.422 190.312 154.891 191.812 153.703 193.062C152.578 194.312 151.109 194.938 149.297 194.938C147.234 194.938 145.703 194.531 144.703 193.719C143.766 192.844 142.984 191.75 142.359 190.438L140.578 185.562H121.734C119.984 185.562 118.516 184.938 117.328 183.688C116.078 182.5 115.453 181.031 115.453 179.281ZM162.891 144.781C162.891 143.031 163.484 141.562 164.672 140.375C165.922 139.125 167.422 138.5 169.172 138.5H223.734C225.484 138.5 226.984 139.094 228.234 140.281C229.422 141.531 230.016 143.031 230.016 144.781C230.016 146.531 229.391 148.031 228.141 149.281C226.953 150.469 225.484 151.062 223.734 151.062H202.828V189.031C202.453 192.781 200.391 194.812 196.641 195.125C194.891 195.125 193.359 194.562 192.047 193.438C190.797 192.25 190.172 190.781 190.172 189.031V151.062H169.172C167.422 151.062 165.953 150.438 164.766 149.188C163.516 148 162.891 146.531 162.891 144.781Z" fill="black"></path>
</g>
<defs>
<filter id="filter0_d_6_7" x="177" y="106" width="38" height="37" filterUnits="userSpaceOnUse" color-interpolation-filters="sRGB">
<feFlood flood-opacity="0" result="BackgroundImageFix"></feFlood>
<feColorMatrix in="SourceAlpha" type="matrix" values="0 0 0 0 0 0 0 0 0 0 0 0 0 0 0 0 0 0 127 0" result="hardAlpha"></feColorMatrix>
<feOffset dx="1" dy="2"></feOffset>
<feGaussianBlur stdDeviation="1"></feGaussianBlur>
<feComposite in2="hardAlpha" operator="out"></feComposite>
<feColorMatrix type="matrix" values="0 0 0 0 0 0 0 0 0 0 0 0 0 0 0 0 0 0 0.25 0"></feColorMatrix>
<feBlend mode="normal" in2="BackgroundImageFix" result="effect1_dropShadow_6_7"></feBlend>
<feBlend mode="normal" in="SourceGraphic" in2="effect1_dropShadow_6_7" result="shape"></feBlend>
</filter>
<filter id="filter1_d_6_7" x="60.9688" y="58.5" width="136.375" height="60.4375" filterUnits="userSpaceOnUse" color-interpolation-filters="sRGB">
<feFlood flood-opacity="0" result="BackgroundImageFix"></feFlood>
<feColorMatrix in="SourceAlpha" type="matrix" values="0 0 0 0 0 0 0 0 0 0 0 0 0 0 0 0 0 0 127 0" result="hardAlpha"></feColorMatrix>
<feOffset dx="1" dy="2"></feOffset>
<feGaussianBlur stdDeviation="1"></feGaussianBlur>
<feComposite in2="hardAlpha" operator="out"></feComposite>
<feColorMatrix type="matrix" values="0 0 0 0 0 0 0 0 0 0 0 0 0 0 0 0 0 0 1 0"></feColorMatrix>
<feBlend mode="normal" in2="BackgroundImageFix" result="effect1_dropShadow_6_7"></feBlend>
<feBlend mode="normal" in="SourceGraphic" in2="effect1_dropShadow_6_7" result="shape"></feBlend>
</filter>
<filter id="filter2_d_6_7" x="25.3906" y="136.25" width="207.625" height="62.875" filterUnits="userSpaceOnUse" color-interpolation-filters="sRGB">
<feFlood flood-opacity="0" result="BackgroundImageFix"></feFlood>
<feColorMatrix in="SourceAlpha" type="matrix" values="0 0 0 0 0 0 0 0 0 0 0 0 0 0 0 0 0 0 127 0" result="hardAlpha"></feColorMatrix>
<feOffset dx="1" dy="2"></feOffset>
<feGaussianBlur stdDeviation="1"></feGaussianBlur>
<feComposite in2="hardAlpha" operator="out"></feComposite>
<feColorMatrix type="matrix" values="0 0 0 0 0 0 0 0 0 0 0 0 0 0 0 0 0 0 1 0"></feColorMatrix>
<feBlend mode="normal" in2="BackgroundImageFix" result="effect1_dropShadow_6_7"></feBlend>
<feBlend mode="normal" in="SourceGraphic" in2="effect1_dropShadow_6_7" result="shape"></feBlend>
</filter>
</defs>
</svg>